<?xml version="1.0"?>
<svg version="1.1" xmlns="http://www.w3.org/2000/svg" width="400" height="200" style=""><path fill="#dceb10" d="M16.87646484375,125.49609375q0.1787109375-4.8251953125,0.312744140625-9.888671875t0.253173828125-9.992919921875t0.1787109375-9.575927734375t0.0595703125-8.66748046875q0.0595703125-0.80419921875,1.39990234375-1.28076171875t3.201904296875-0.699951171875t3.931640625-0.282958984375t3.678466796875-0.0595703125q0.357421875,0,1.4892578125-0.02978515625l0.56591796875,0q0.86376953125,0,1.81689453125,0.0595703125q1.2509765625,0.08935546875,2.189208984375,0.38720703125t0.938232421875,0.86376953125q0,0.4169921875-0.32763671875,0.670166015625t-0.759521484375,0.372314453125t-0.8935546875,0.14892578125t-0.640380859375,0.02978515625q-2.7998046875,0-5.5400390625-0.08935546875q-0.74462890625-0.02978515625-1.51904296875-0.02978515625q-2.025390625,0-4.1103515625,0.1787109375q0.119140625,0.357421875,0.193603515625,2.159423828125t0.074462890625,4.065673828125t-0.02978515625,4.423095703125t0,3.321044921875l0,7.744140625q0.92333984375-0.0595703125,1.81689453125-0.0595703125l1.787109375,0l1.19140625-0.0595703125q0.595703125-0.02978515625,1.2509765625-0.02978515625q0.68505859375,0,1.39990234375,0.02978515625q1.4296875,0.0595703125,2.606201171875,0.342529296875t1.176513671875,0.997802734375q0,0.5361328125-0.44677734375,0.789306640625t-0.997802734375,0.372314453125t-1.04248046875,0.119140625l-0.551025390625,0q-1.69775390625,0-3.529541015625-0.119140625t-3.410400390625-0.119140625q-0.2978515625,0.119140625-0.640380859375,0.08935546875t-0.610595703125-0.02978515625q0,4.4677734375-0.08935546875,8.890869140625t-0.20849609375,8.801513671875q0,0.86376953125-1.087158203125,1.1318359375t-2.070068359375,0.26806640625q-1.10205078125,0-1.742431640625-0.26806640625t-0.908447265625-0.878662109375t-0.32763671875-1.623291015625q-0.02978515625-0.56591796875-0.0595703125-1.2509765625q0-0.56591796875,0.02978515625-1.22119140625z M41.171323242188,118.67529296875q0-2.740234375,0.640380859375-5.376220703125t1.087158203125-5.257080078125q0.119140625-0.68505859375,0.938232421875-0.848876953125t1.385009765625-0.163818359375q0.98291015625,0,1.57861328125,0.2978515625q0.23828125,0.119140625,0.44677734375,0.26806640625t0.20849609375,0.38720703125q0,2.5615234375-0.610595703125,5.00390625t-0.610595703125,5.1826171875q0,0.92333984375,0.134033203125,1.742431640625t0.253173828125,1.623291015625l0.1787109375,0.86376953125q0,0.23828125,0.02978515625,0.4169921875t0.08935546875,0.4169921875q0,0.5361328125-0.759521484375,0.729736328125t-1.325439453125,0.193603515625q-0.86376953125,0-1.593505859375-0.342529296875t-1.146728515625-1.176513671875l-0.4169921875-0.86376953125q-0.357421875-0.68505859375-0.357421875-1.533935546875t-0.14892578125-1.563720703125z M43.077573242188,100.74462890625l0-0.56591796875q0-1.39990234375,0.699951171875-2.501953125t2.099853515625-1.10205078125q0.1787109375,0,0.342529296875,0.02978515625t0.342529296875,0.02978515625q0.357421875,0.0595703125,0.938232421875,0.282958984375t0.580810546875,0.699951171875l0,0.0595703125q-0.119140625,0.23828125-0.14892578125,0.491455078125t-0.14892578125,0.431884765625l0.0595703125-0.0595703125q-0.357421875,0.92333984375-0.580810546875,1.4892578125t-0.491455078125,0.908447265625t-0.670166015625,0.491455078125t-1.146728515625,0.14892578125q-0.119140625,0-0.4169921875-0.02978515625t-0.640380859375-0.119140625t-0.580810546875-0.23828125t-0.23828125-0.44677734375z M52.956416015625,108.31005859375q0-0.23828125,0.282958984375-0.431884765625t0.640380859375-0.282958984375t0.729736328125-0.119140625t0.551025390625-0.02978515625q1.34033203125,0,2.29345703125,1.19140625t1.653076171875,3.052978515625t1.19140625,4.1103515625t0.938232421875,4.482666015625t0.878662109375,4.095458984375t0.968017578125,2.874267578125q0.92333984375-1.81689453125,1.682861328125-4.37841796875t1.39990234375-5.3017578125t1.1318359375-5.406005859375t0.789306640625-4.661376953125q0.119140625-0.5361328125,0.74462890625-0.670166015625t1.04248046875-0.134033203125q0.68505859375,0,1.19140625,0.193603515625t0.50634765625,0.848876953125q0,1.10205078125-0.26806640625,2.993408203125t-0.729736328125,4.244384765625t-1.072265625,4.8251953125t-1.310546875,4.691162109375t-1.45947265625,3.931640625t-1.504150390625,2.427490234375q-0.357421875,0.4169921875-1.116943359375,0.580810546875t-1.265869140625,0.163818359375q-1.75732421875,0-2.9189453125-0.92333984375l0,0.0595703125q-1.81689453125-1.69775390625-2.6806640625-4.14013671875t-1.2509765625-5.09326171875t-0.699951171875-5.27197265625t-1.057373046875-4.765625q-0.119140625-0.23828125-0.2978515625-0.699951171875t-0.4169921875-0.92333984375t-0.402099609375-0.878662109375t-0.163818359375-0.6552734375z M76.447075195313,120.611328125q0-2.0849609375,0.461669921875-4.91455078125t1.563720703125-5.361328125t2.904052734375-4.303955078125t4.542236328125-1.772216796875q2.5615234375,0,3.84228515625,1.474365234375t1.28076171875,3.976318359375q0,1.63818359375-0.610595703125,3.589111328125t-1.742431640625,3.693359375t-2.6806640625,2.904052734375t-3.455078125,1.16162109375l-0.7744140625-0.0595703125q0,0.80419921875,0.23828125,2.159423828125t0.699951171875,2.695556640625t1.19140625,2.35302734375t1.772216796875,1.0126953125q1.51904296875,0,2.9189453125-1.22119140625t2.65087890625-2.71044921875t2.3232421875-2.71044921875t1.9658203125-1.22119140625q0.4765625,0,0.98291015625,0.14892578125t0.56591796875,0.833984375q0,0.4169921875-0.223388671875,0.68505859375t-0.402099609375,0.595703125q-0.92333984375,1.57861328125-2.010498046875,3.00830078125t-2.457275390625,2.59130859375t-2.993408203125,1.831787109375t-3.589111328125,0.670166015625q-2.5615234375,0-4.25927734375-0.908447265625t-2.740234375-2.4423828125t-1.504150390625-3.54443359375t-0.461669921875-4.214599609375z M81.778618164063,118.34765625l0.833984375,0.74462890625q0.595703125,0.5361328125,1.19140625,0.23828125t1.072265625-1.087158203125t0.878662109375-1.950927734375t0.71484375-2.3828125t0.461669921875-2.3828125t0.14892578125-1.93603515625l0-1.0126953125t-0.08935546875-1.072265625t-0.312744140625-0.848876953125t-0.699951171875-0.431884765625q-0.14892578125-0.02978515625-0.26806640625-0.02978515625q-1.0126953125,0-1.7275390625,1.28076171875q-0.7744140625,1.4296875-1.2509765625,3.469970703125t-0.68505859375,4.184814453125t-0.26806640625,3.216796875z M112.94401855469,89.6943359375q0-1.39990234375,0.342529296875-2.040283203125t0.98291015625-0.8935546875t1.548828125-0.193603515625t2.129638671875,0.0595703125q3.09765625,0,6.2548828125,0.953125t5.68896484375,2.784912109375t4.08056640625,4.512451171875t1.548828125,6.16552734375q0,2.3232421875-0.670166015625,4.393310546875t-1.891357421875,3.8720703125t-2.859375,3.291259765625t-3.60400390625,2.59130859375q0.80419921875,0.80419921875,2.0849609375,2.844482421875t2.53173828125,4.3486328125t2.218994140625,4.482666015625t1.146728515625,3.2763671875l-0.357421875,0.5361328125q-0.80419921875,0.4765625-1.93603515625,0.50634765625q-0.5361328125,0-1.39990234375-0.134033203125t-1.10205078125-0.789306640625q-1.22119140625-3.42529296875-2.665771484375-7.05908203125t-3.559326171875-6.552734375l0-0.0595703125q-0.74462890625,0.2978515625-1.474365234375,0.580810546875t-1.474365234375,0.521240234375q0.23828125,3.30615234375,0.491455078125,6.508056640625t0.253173828125,6.478271484375q0,0.4169921875-0.402099609375,0.670166015625t-0.908447265625,0.402099609375t-1.027587890625,0.20849609375t-0.848876953125,0.0595703125q-0.2978515625,0-0.848876953125-0.0595703125t-1.057373046875-0.20849609375t-0.878662109375-0.431884765625t-0.372314453125-0.759521484375q0-3.30615234375-0.14892578125-6.597412109375t-0.32763671875-6.567626953125q-0.92333984375-0.595703125-0.92333984375-1.548828125q0-0.74462890625,0.71484375-1.0126953125q-0.357421875-6.28466796875-0.819091796875-12.53955078125t-0.461669921875-12.59912109375z M118.33513183594,88.77099609375q0.4169921875,6.46337890625,0.938232421875,12.77783203125t0.997802734375,12.77783203125q2.0849609375-0.595703125,3.886962890625-2.070068359375t3.112548828125-3.321044921875t2.040283203125-4.02099609375t0.729736328125-4.31884765625q0-2.3828125-0.953125-4.572021484375t-2.53173828125-3.827392578125q-1.6083984375-1.63818359375-3.693359375-2.5615234375q-1.8466796875-0.80419921875-3.8720703125-0.80419921875l-0.5361328125,0z M141.61729492188,120.611328125q0-2.0849609375,0.461669921875-4.91455078125t1.563720703125-5.361328125t2.904052734375-4.303955078125t4.542236328125-1.772216796875q2.5615234375,0,3.84228515625,1.474365234375t1.28076171875,3.976318359375q0,1.63818359375-0.610595703125,3.589111328125t-1.742431640625,3.693359375t-2.6806640625,2.904052734375t-3.455078125,1.16162109375l-0.7744140625-0.0595703125q0,0.80419921875,0.23828125,2.159423828125t0.699951171875,2.695556640625t1.19140625,2.35302734375t1.772216796875,1.0126953125q1.51904296875,0,2.9189453125-1.22119140625t2.65087890625-2.71044921875t2.3232421875-2.71044921875t1.9658203125-1.22119140625q0.4765625,0,0.98291015625,0.14892578125t0.56591796875,0.833984375q0,0.4169921875-0.223388671875,0.68505859375t-0.402099609375,0.595703125q-0.92333984375,1.57861328125-2.010498046875,3.00830078125t-2.457275390625,2.59130859375t-2.993408203125,1.831787109375t-3.589111328125,0.670166015625q-2.5615234375,0-4.25927734375-0.908447265625t-2.740234375-2.4423828125t-1.504150390625-3.54443359375t-0.461669921875-4.214599609375z M146.94883789062,118.34765625l0.833984375,0.74462890625q0.595703125,0.5361328125,1.19140625,0.23828125t1.072265625-1.087158203125t0.878662109375-1.950927734375t0.71484375-2.3828125t0.461669921875-2.3828125t0.14892578125-1.93603515625l0-1.0126953125t-0.08935546875-1.072265625t-0.312744140625-0.848876953125t-0.699951171875-0.431884765625q-0.14892578125-0.02978515625-0.26806640625-0.02978515625q-1.0126953125,0-1.7275390625,1.28076171875q-0.7744140625,1.4296875-1.2509765625,3.469970703125t-0.68505859375,4.184814453125t-0.26806640625,3.216796875z M166.50785644531,118.79443359375q0-2.14453125,0.551025390625-4.303955078125t1.712646484375-3.8720703125t2.963623046875-2.784912109375t4.244384765625-1.072265625q1.04248046875,0,2.29345703125,0.253173828125t2.308349609375,0.80419921875t1.787109375,1.4296875t0.729736328125,2.159423828125q0,0.80419921875-0.4169921875,1.072265625t-1.10205078125,0.26806640625l-0.20849609375-0.2978515625t-0.580810546875-0.759521484375t-0.789306640625-0.98291015625t-0.80419921875-0.878662109375q-1.22119140625-1.22119140625-2.29345703125-1.310546875l-0.23828125,0q-0.8935546875,0-1.66796875,0.5361328125q-0.86376953125,0.6552734375-1.533935546875,1.8466796875t-1.116943359375,2.53173828125t-0.699951171875,2.71044921875t-0.253173828125,2.263671875q0,1.22119140625,0.282958984375,2.784912109375t0.953125,2.963623046875t1.69775390625,2.35302734375t2.635986328125,0.953125q1.45947265625,0,2.65087890625-0.71484375t2.278564453125-1.593505859375t2.129638671875-1.57861328125t2.14453125-0.699951171875q0.4765625,0,0.968017578125,0.119140625t0.491455078125,0.62548828125l0,0.1787109375q-0.5361328125,1.39990234375-1.81689453125,2.47216796875t-2.874267578125,1.861572265625t-3.30615234375,1.176513671875t-3.052978515625,0.38720703125q-2.501953125,0-4.393310546875-0.819091796875t-3.142333984375-2.248779296875t-1.891357421875-3.440185546875t-0.640380859375-4.393310546875z M192.50046875,111.05029296875q0-1.22119140625,0.431884765625-2.05517578125t1.831787109375-0.833984375q0.5361328125,0,1.34033203125,0.163818359375t0.92333984375,0.819091796875q0.2978515625,1.75732421875,0.32763671875,3.8125t0.20849609375,3.8720703125q0.68505859375-1.34033203125,1.75732421875-2.88916015625t2.4423828125-2.859375t2.978515625-2.17431640625t3.2763671875-0.86376953125q0.119140625,0,0.44677734375,0.08935546875t0.610595703125,0.253173828125t0.342529296875,0.372314453125t-0.32763671875,0.38720703125q-0.119140625,0.357421875-0.50634765625,0.431884765625t-0.68505859375,0.074462890625q-0.1787109375,0-0.56591796875-0.14892578125q-2.2041015625,1.16162109375-3.7529296875,3.1572265625t-2.53173828125,4.423095703125t-1.4296875,5.123046875t-0.44677734375,5.257080078125q0,1.28076171875-0.580810546875,1.548828125t-1.861572265625,0.26806640625q-0.68505859375,0-1.444580078125-0.14892578125t-1.057373046875-0.953125q-0.5361328125-1.69775390625-0.878662109375-3.90185546875t-0.521240234375-4.542236328125t-0.253173828125-4.601806640625t-0.074462890625-4.08056640625z M212.44669433594,116.76904296875q0-0.595703125,0.134033203125-1.57861328125t0.312744140625-1.950927734375t0.4169921875-1.802001953125t0.56591796875-1.072265625q0.23828125-0.23828125,0.819091796875-0.4765625t1.22119140625-0.342529296875t1.19140625,0.08935546875t0.670166015625,0.789306640625q-0.4169921875,0.5361328125-0.759521484375,1.831787109375t-0.521240234375,2.874267578125q-0.14892578125,1.34033203125-0.14892578125,2.77001953125l0,0.50634765625q0.02978515625,1.66796875,0.2978515625,3.06787109375t0.819091796875,2.308349609375t1.533935546875,0.908447265625q2.0849609375,0,3.8125-1.921142578125t3.06787109375-4.691162109375t2.35302734375-5.882568359375t1.7275390625-5.435791015625q0.1787109375-0.68505859375,0.848876953125-0.92333984375t1.444580078125-0.163818359375t1.385009765625,0.372314453125t0.729736328125,0.71484375q-0.595703125,5.00390625-0.938232421875,10.0078125t-0.342529296875,10.0673828125q0,0.98291015625,0.08935546875,1.802001953125t-0.08935546875,1.39990234375t-0.789306640625,0.92333984375t-1.950927734375,0.342529296875q-0.2978515625,0-0.759521484375-0.0595703125t-0.953125-0.193603515625t-0.833984375-0.402099609375t-0.342529296875-0.62548828125q0-2.2041015625,0.163818359375-4.52734375t0.461669921875-4.49755859375q-0.80419921875,1.16162109375-1.772216796875,2.308349609375t-2.129638671875,2.070068359375t-2.501953125,1.474365234375t-2.88916015625,0.551025390625q-2.2041015625,0-3.469970703125-1.04248046875t-1.90625-2.606201171875t-0.80419921875-3.410400390625t-0.163818359375-3.57421875z M240.46469726563,118.67529296875q0-2.740234375,0.640380859375-5.376220703125t1.087158203125-5.257080078125q0.119140625-0.68505859375,0.938232421875-0.848876953125t1.385009765625-0.163818359375q0.98291015625,0,1.57861328125,0.2978515625q0.23828125,0.119140625,0.44677734375,0.26806640625t0.20849609375,0.38720703125q0,2.5615234375-0.610595703125,5.00390625t-0.610595703125,5.1826171875q0,0.92333984375,0.134033203125,1.742431640625t0.253173828125,1.623291015625l0.1787109375,0.86376953125q0,0.23828125,0.02978515625,0.4169921875t0.08935546875,0.4169921875q0,0.5361328125-0.759521484375,0.729736328125t-1.325439453125,0.193603515625q-0.86376953125,0-1.593505859375-0.342529296875t-1.146728515625-1.176513671875l-0.4169921875-0.86376953125q-0.357421875-0.68505859375-0.357421875-1.533935546875t-0.14892578125-1.563720703125z M242.37094726563,100.74462890625l0-0.56591796875q0-1.39990234375,0.699951171875-2.501953125t2.099853515625-1.10205078125q0.1787109375,0,0.342529296875,0.02978515625t0.342529296875,0.02978515625q0.357421875,0.0595703125,0.938232421875,0.282958984375t0.580810546875,0.699951171875l0,0.0595703125q-0.119140625,0.23828125-0.14892578125,0.491455078125t-0.14892578125,0.431884765625l0.0595703125-0.0595703125q-0.357421875,0.92333984375-0.580810546875,1.4892578125t-0.491455078125,0.908447265625t-0.670166015625,0.491455078125t-1.146728515625,0.14892578125q-0.119140625,0-0.4169921875-0.02978515625t-0.640380859375-0.119140625t-0.580810546875-0.23828125t-0.23828125-0.44677734375z M252.24979003906,100.4765625q0-0.4169921875,0.8935546875-0.71484375t2.025390625-0.491455078125t2.189208984375-0.282958984375t1.444580078125-0.14892578125q0-0.80419921875,0.0595703125-1.623291015625t0.32763671875-1.45947265625t0.848876953125-1.027587890625t1.623291015625-0.38720703125q0.86376953125,0,1.310546875,0.20849609375t0.953125,0.86376953125q0.119140625,0.357421875,0.119140625,0.68505859375l0,0.997802734375t-0.0595703125,1.027587890625q1.10205078125-0.119140625,2.189208984375-0.282958984375t2.189208984375-0.163818359375q0.80419921875,0,1.10205078125,0.02978515625t0.595703125,0.71484375q0.23828125,0.68505859375-0.580810546875,1.04248046875t-1.9658203125,0.5361328125t-2.278564453125,0.26806640625t-1.3701171875,0.08935546875q-0.357421875,5.123046875-0.729736328125,10.15673828125t-0.372314453125,10.21630859375q0,2.3232421875,0.14892578125,4.79541015625t0.833984375,4.67626953125q0.1787109375,0.68505859375,0.595703125,1.28076171875t0.4169921875,1.28076171875q0,0.4169921875-0.32763671875,0.6552734375t-0.789306640625,0.402099609375t-0.92333984375,0.193603515625t-0.759521484375,0.02978515625q-1.87646484375,0-2.859375-1.39990234375t-1.414794921875-3.350830078125t-0.461669921875-4.006103515625t-0.02978515625-3.3359375q0-2.62109375,0.104248046875-5.361328125t0.253173828125-5.4208984375t0.4169921875-5.2421875t0.62548828125-4.765625q-1.04248046875,0.119140625-2.040283203125,0.26806640625t-2.040283203125,0.14892578125q-0.23828125,0-0.640380859375-0.02978515625t-0.759521484375-0.14892578125t-0.610595703125-0.32763671875t-0.253173828125-0.595703125z M275.10006835938,111.92895507812q-0.074462890625-0.997802734375,0.119140625-1.831787109375t0.7744140625-1.355224609375t1.861572265625-0.521240234375q0.2978515625,0,0.729736328125,0.074462890625t0.848876953125,0.193603515625t0.699951171875,0.357421875t0.282958984375,0.6552734375l0,3.36572265625q1.16162109375-1.34033203125,2.53173828125-1.921142578125t3.12744140625-0.580810546875q1.34033203125,0,2.65087890625,0.610595703125t2.47216796875,1.623291015625t2.010498046875,2.23388671875t1.236083984375,2.4423828125q0.23828125-1.10205078125,0.5361328125-2.695556640625t0.878662109375-3.052978515625t1.533935546875-2.501953125t2.53173828125-1.04248046875q1.69775390625,0,2.859375,1.22119140625t1.891357421875,3.172119140625t1.10205078125,4.363525390625t0.551025390625,4.765625t0.1787109375,4.393310546875l0,3.201904296875q0,0.357421875-0.26806640625,0.580810546875t-0.670166015625,0.342529296875t-0.833984375,0.14892578125t-0.670166015625,0.02978515625q-0.92333984375,0-1.682861328125-0.282958984375t-0.759521484375-1.444580078125l0-2.6806640625t-0.0595703125-3.469970703125t-0.20849609375-3.72314453125t-0.38720703125-3.380615234375t-0.610595703125-2.4423828125t-0.908447265625-0.953125q-0.74462890625,0-1.072265625,0.833984375t-0.551025390625,2.11474609375t-0.342529296875,2.71044921875t-0.32763671875,2.71044921875t-0.670166015625,2.099853515625t-1.265869140625,0.819091796875q-0.86376953125,0-1.51904296875-0.819091796875t-1.295654296875-2.040283203125t-1.28076171875-2.62109375t-1.414794921875-2.62109375q-0.7744140625-1.2509765625-1.66796875-2.025390625q-0.80419921875-0.74462890625-1.81689453125-0.71484375l-0.14892578125,0q-1.34033203125,0.0595703125-2.099853515625,0.968017578125t-1.16162109375,2.218994140625t-0.491455078125,2.814697265625t-0.08935546875,2.635986328125q0,1.072265625,0.1787109375,2.501953125q0.119140625,0.953125,0.119140625,1.81689453125q0,0.44677734375-0.02978515625,0.86376953125q-0.08935546875,1.2509765625-0.670166015625,2.099853515625t-2.159423828125,0.848876953125q-0.595703125,0-1.4892578125-0.119140625t-1.19140625-0.80419921875q-0.68505859375-1.22119140625-1.04248046875-3.082763671875t-0.5361328125-3.84228515625t-0.20849609375-3.931640625t-0.02978515625-3.350830078125q0-0.98291015625-0.074462890625-1.980712890625z M312.66421386719,120.611328125q0-2.0849609375,0.461669921875-4.91455078125t1.563720703125-5.361328125t2.904052734375-4.303955078125t4.542236328125-1.772216796875q2.5615234375,0,3.84228515625,1.474365234375t1.28076171875,3.976318359375q0,1.63818359375-0.610595703125,3.589111328125t-1.742431640625,3.693359375t-2.6806640625,2.904052734375t-3.455078125,1.16162109375l-0.7744140625-0.0595703125q0,0.80419921875,0.23828125,2.159423828125t0.699951171875,2.695556640625t1.19140625,2.35302734375t1.772216796875,1.0126953125q1.51904296875,0,2.9189453125-1.22119140625t2.65087890625-2.71044921875t2.3232421875-2.71044921875t1.9658203125-1.22119140625q0.4765625,0,0.98291015625,0.14892578125t0.56591796875,0.833984375q0,0.4169921875-0.223388671875,0.68505859375t-0.402099609375,0.595703125q-0.92333984375,1.57861328125-2.010498046875,3.00830078125t-2.457275390625,2.59130859375t-2.993408203125,1.831787109375t-3.589111328125,0.670166015625q-2.5615234375,0-4.25927734375-0.908447265625t-2.740234375-2.4423828125t-1.504150390625-3.54443359375t-0.461669921875-4.214599609375z M317.99575683594,118.34765625l0.833984375,0.74462890625q0.595703125,0.5361328125,1.19140625,0.23828125t1.072265625-1.087158203125t0.878662109375-1.950927734375t0.71484375-2.3828125t0.461669921875-2.3828125t0.14892578125-1.93603515625l0-1.0126953125t-0.08935546875-1.072265625t-0.312744140625-0.848876953125t-0.699951171875-0.431884765625q-0.14892578125-0.02978515625-0.26806640625-0.02978515625q-1.0126953125,0-1.7275390625,1.28076171875q-0.7744140625,1.4296875-1.2509765625,3.469970703125t-0.68505859375,4.184814453125t-0.26806640625,3.216796875z M337.58456054688,119.5390625l0-0.86376953125q0-1.072265625,0.0595703125-2.025390625q0.0595703125-1.34033203125,0.0595703125-2.2041015625q0-0.4765625,0.0595703125-1.087158203125t0.2978515625-0.968017578125q0.2978515625-0.2978515625,0.699951171875-0.610595703125t0.878662109375-0.312744140625q1.51904296875,0,2.3828125,0.342529296875t0.92333984375,1.414794921875l0.119140625,0.92333984375q0.5361328125-1.28076171875,1.4296875-3.172119140625t2.070068359375-3.60400390625t2.65087890625-2.9189453125t3.112548828125-1.206298828125q1.51904296875,0,2.501953125,1.4296875t1.563720703125,3.648681640625t0.819091796875,4.9443359375t0.32763671875,5.346435546875t0.119140625,4.780517578125t0.20849609375,3.261474609375q0.119140625,0.92333984375,0.402099609375,1.950927734375t0.282958984375,1.891357421875q0,0.23828125-0.342529296875,0.461669921875t-0.729736328125,0.372314453125t-0.789306640625,0.23828125t-0.580810546875,0.08935546875q-1.16162109375,0-1.653076171875-1.742431640625t-0.610595703125-4.363525390625t-0.119140625-5.674072265625t-0.20849609375-5.674072265625t-0.848876953125-4.363525390625t-2.040283203125-1.802001953125q-1.28076171875,0-2.65087890625,1.653076171875t-2.35302734375,4.393310546875q-0.953125,2.740234375-1.310546875,6.22509765625q-0.119140625,1.10205078125-0.119140625,2.2041015625q0,2.41259765625,0.50634765625,4.8251953125q0.0595703125,0.4169921875-0.342529296875,0.62548828125t-0.997802734375,0.32763671875t-1.206298828125,0.14892578125t-0.938232421875,0.02978515625q-1.16162109375,0-1.861572265625-0.819091796875t-1.087158203125-2.099853515625t-0.521240234375-2.874267578125t-0.163818359375-3.142333984375z M363.42824707031,100.4765625q0-0.4169921875,0.8935546875-0.71484375t2.025390625-0.491455078125t2.189208984375-0.282958984375t1.444580078125-0.14892578125q0-0.80419921875,0.0595703125-1.623291015625t0.32763671875-1.45947265625t0.848876953125-1.027587890625t1.623291015625-0.38720703125q0.86376953125,0,1.310546875,0.20849609375t0.953125,0.86376953125q0.119140625,0.357421875,0.119140625,0.68505859375l0,0.997802734375t-0.0595703125,1.027587890625q1.10205078125-0.119140625,2.189208984375-0.282958984375t2.189208984375-0.163818359375q0.80419921875,0,1.10205078125,0.02978515625t0.595703125,0.71484375q0.23828125,0.68505859375-0.580810546875,1.04248046875t-1.9658203125,0.5361328125t-2.278564453125,0.26806640625t-1.3701171875,0.08935546875q-0.357421875,5.123046875-0.729736328125,10.15673828125t-0.372314453125,10.21630859375q0,2.3232421875,0.14892578125,4.79541015625t0.833984375,4.67626953125q0.1787109375,0.68505859375,0.595703125,1.28076171875t0.4169921875,1.28076171875q0,0.4169921875-0.32763671875,0.6552734375t-0.789306640625,0.402099609375t-0.92333984375,0.193603515625t-0.759521484375,0.02978515625q-1.87646484375,0-2.859375-1.39990234375t-1.414794921875-3.350830078125t-0.461669921875-4.006103515625t-0.02978515625-3.3359375q0-2.62109375,0.104248046875-5.361328125t0.253173828125-5.4208984375t0.4169921875-5.2421875t0.62548828125-4.765625q-1.04248046875,0.119140625-2.040283203125,0.26806640625t-2.040283203125,0.14892578125q-0.23828125,0-0.640380859375-0.02978515625t-0.759521484375-0.14892578125t-0.610595703125-0.32763671875t-0.253173828125-0.595703125z"/><path fill="#" d=""/></svg>
